<svg width="33" height="32" viewBox="0 0 33 32" fill="none" xmlns="http://www.w3.org/2000/svg">
<path d="M16.4998 29.3332C9.13604 29.3332 3.1665 23.3636 3.1665 15.9998C3.1665 8.63604 9.13604 2.6665 16.4998 2.6665C23.8636 2.6665 29.8332 8.63604 29.8332 15.9998C29.8251 23.3603 23.8603 29.3251 16.4998 29.3332ZM16.4998 5.33317C10.6088 5.33317 5.83317 10.1088 5.83317 15.9998C5.83317 21.8909 10.6088 26.6665 16.4998 26.6665C22.3909 26.6665 27.1665 21.8909 27.1665 15.9998C27.1599 10.1115 22.3881 5.33978 16.4998 5.33317ZM21.8332 22.6665H11.1665V19.9998H21.8332V22.6665ZM11.8332 15.9998C10.7286 15.9998 9.83317 15.1044 9.83317 13.9998C9.83317 12.8953 10.7286 11.9998 11.8332 11.9998C12.9377 11.9998 13.8332 12.8953 13.8332 13.9998C13.8332 15.1044 12.9377 15.9998 11.8332 15.9998ZM21.1572 15.9812C20.0578 15.9812 19.1665 15.0899 19.1665 13.9905C19.1665 12.8911 20.0578 11.9998 21.1572 11.9998C22.2566 11.9998 23.1478 12.8911 23.1478 13.9905C23.1464 15.0893 22.256 15.9797 21.1572 15.9812Z" fill="white"/>
</svg>
